# xmcd
#
# Track frame offsets: 
#        150
#        17677
#        32216
#        48077
#        66403
#        82374
#        93576
#        106431
#        125783
#        139703
#        155388
#        174570
#
# Disc length: 2569 seconds
#
# Revision: 0
# Processed by: cddbd v1.5.2PL0 Copyright (c) Steve Scherf et al.
# Submitted via: ExactAudioCopy v1.0b4
#
DISCID=a80a070c
DTITLE=Bohemia Suburbana - Imaginaria Sonora
DYEAR=1900
DGENRE=
TTITLE0=Tengo que llegar
TTITLE1=La quimera
TTITLE2=Mapa universal
TTITLE3=Mal sabor
TTITLE4=Perplejo
TTITLE5=Ayai uyui
TTITLE6=Dia de los muertos
TTITLE7=Pero nadie
TTITLE8=Paso al rio
TTITLE9=Xibalba
TTITLE10=Irreversible sistema
TTITLE11=Buscando conexion
EXTD=
EXTT0=
EXTT1=
EXTT2=
EXTT3=
EXTT4=
EXTT5=
EXTT6=
EXTT7=
EXTT8=
EXTT9=
EXTT10=
EXTT11=
PLAYORDER=
